<?xml version="1.0"?>
<svg xmlns="http://www.w3.org/2000/svg" xmlns:xlink="http://www.w3.org/1999/xlink" version="1.1" id="Capa_1" x="0px" y="0px" width="512px" height="512px" viewBox="0 0 38.342 38.342" style="enable-background:new 0 0 38.342 38.342;" xml:space="preserve" class=""><g><g>
	<path d="M19.171,0C8.6,0,0,8.6,0,19.171C0,29.74,8.6,38.342,19.171,38.342c10.569,0,19.171-8.602,19.171-19.171   C38.342,8.6,29.74,0,19.171,0z M19.171,34.341C10.806,34.341,4,27.533,4,19.17c0-8.365,6.806-15.171,15.171-15.171   s15.171,6.806,15.171,15.171C34.342,27.533,27.536,34.341,19.171,34.341z M30.855,19.171c0,1.656-1.344,3-3,3h-5.685v5.685   c0,1.655-1.345,3-3,3c-1.657,0-3-1.345-3-3v-5.685h-5.684c-1.657,0-3-1.344-3-3c0-1.657,1.343-3,3-3h5.684v-5.683   c0-1.657,1.343-3,3-3c1.655,0,3,1.343,3,3v5.683h5.685C29.512,16.171,30.855,17.514,30.855,19.171z" data-original="#000000" class="active-path" data-old_color="#000000" fill="#099CC2"/>
</g></g> </svg>
